<svg width="25" height="24" viewBox="0 0 25 24" fill="none" xmlns="http://www.w3.org/2000/svg">
<path d="M6.87115 18V20.25" stroke="#6D737A" stroke-width="1.60606" stroke-linecap="round" stroke-linejoin="round"/>
<path d="M17.3712 18V20.25" stroke="#6D737A" stroke-width="1.60606" stroke-linecap="round" stroke-linejoin="round"/>
<path d="M5.37122 9.75012V4.87512C5.37122 4.37784 5.56876 3.90093 5.92039 3.5493C6.27202 3.19767 6.74894 3.00012 7.24622 3.00012C7.7435 3.00012 8.22041 3.19767 8.57204 3.5493C8.92367 3.90093 9.12122 4.37784 9.12122 4.87512" stroke="#6D737A" stroke-width="1.60606" stroke-linecap="round" stroke-linejoin="round"/>
<path d="M18.8712 9.00012H12.8712V13.5001H18.8712V9.00012Z" stroke="#6D737A" stroke-width="1.60606" stroke-linecap="round" stroke-linejoin="round"/>
<path d="M18.8712 9.75012H21.8712C22.0701 9.75012 22.2608 9.82914 22.4015 9.96979C22.5421 10.1104 22.6212 10.3012 22.6212 10.5001V13.5001C22.6212 14.6936 22.147 15.8382 21.3031 16.6821C20.4592 17.526 19.3146 18.0001 18.1212 18.0001H6.12115C4.92768 18.0001 3.78309 17.526 2.93917 16.6821C2.09526 15.8382 1.62115 14.6936 1.62115 13.5001V10.5001C1.62115 10.3012 1.70017 10.1104 1.84082 9.96979C1.98148 9.82914 2.17224 9.75012 2.37115 9.75012H12.8712" stroke="#6D737A" stroke-width="1.60606" stroke-linecap="round" stroke-linejoin="round"/>
</svg>
